<svg width="24" height="24" viewBox="0 0 24 24" fill="none" xmlns="http://www.w3.org/2000/svg">
<path d="M1.23429 3.90857V6.58286C1.23429 6.9237 0.957982 7.2 0.617143 7.2C0.276304 7.2 0 6.9237 0 6.58286V3.90857C0 1.7163 1.7163 0 3.90857 0H6.58286C6.9237 0 7.2 0.276304 7.2 0.617143C7.2 0.957982 6.9237 1.23429 6.58286 1.23429H3.90857C2.39798 1.23429 1.23429 2.39798 1.23429 3.90857Z" fill="#E0E4DF"/>
<path d="M22.7657 3.90857V6.58286C22.7657 6.9237 23.042 7.2 23.3829 7.2C23.7237 7.2 24 6.9237 24 6.58286V3.90857C24 1.7163 22.2837 0 20.0914 0H17.4171C17.0763 0 16.8 0.276304 16.8 0.617143C16.8 0.957982 17.0763 1.23429 17.4171 1.23429H20.0914C21.602 1.23429 22.7657 2.39798 22.7657 3.90857Z" fill="#E0E4DF"/>
<path d="M1.23429 17.4171V20.0914C1.23429 21.602 2.39798 22.7657 3.90857 22.7657H6.58286C6.9237 22.7657 7.2 23.042 7.2 23.3829C7.2 23.7237 6.9237 24 6.58286 24H3.90857C1.7163 24 0 22.2837 0 20.0914V17.4171C0 17.0763 0.276304 16.8 0.617143 16.8C0.957982 16.8 1.23429 17.0763 1.23429 17.4171Z" fill="#E0E4DF"/>
<path d="M22.7657 20.0914V17.4171C22.7657 17.0763 23.042 16.8 23.3829 16.8C23.7237 16.8 24 17.0763 24 17.4171V20.0914C24 22.2837 22.2837 24 20.0914 24H17.4171C17.0763 24 16.8 23.7237 16.8 23.3829C16.8 23.042 17.0763 22.7657 17.4171 22.7657H20.0914C21.602 22.7657 22.7657 21.602 22.7657 20.0914Z" fill="#E0E4DF"/>
<path d="M6.52648 9.06395V10.7792C6.52648 11.1342 6.7951 11.4221 7.12648 11.4221C7.45785 11.4221 7.72648 11.1342 7.72648 10.7792V9.06395C7.72648 8.70891 7.45785 8.42109 7.12648 8.42109C6.7951 8.42109 6.52648 8.70891 6.52648 9.06395Z" fill="#E0E4DF"/>
<path d="M16.421 10.7792V9.06395C16.421 8.70891 16.6896 8.42109 17.021 8.42109C17.3524 8.42109 17.621 8.70891 17.621 9.06395V10.7792C17.621 11.1342 17.3524 11.4221 17.021 11.4221C16.6896 11.4221 16.421 11.1342 16.421 10.7792Z" fill="#E0E4DF"/>
<path d="M7.77964 17.7249C8.94998 18.8172 10.3674 19.3684 12.0001 19.3684C13.6327 19.3684 15.0501 18.8172 16.2205 17.7249C16.4755 17.4869 16.4892 17.0872 16.2512 16.8322C16.0132 16.5772 15.6136 16.5634 15.3586 16.8014C14.4237 17.674 13.3148 18.1053 12.0001 18.1053C10.6853 18.1053 9.57643 17.674 8.64151 16.8014C8.38651 16.5634 7.98686 16.5772 7.74886 16.8322C7.51086 17.0872 7.52464 17.4869 7.77964 17.7249Z" fill="#E0E4DF"/>
<path d="M11.9997 13.4737V9.05267C11.9997 8.70386 12.2825 8.42109 12.6313 8.42109C12.9801 8.42109 13.2629 8.70386 13.2629 9.05267V13.4737C13.2629 14.4546 12.5587 15.1579 11.5771 15.1579H11.1576C10.8088 15.1579 10.526 14.8752 10.526 14.5264C10.526 14.1775 10.8088 13.8948 11.1576 13.8948H11.5771C11.8614 13.8948 11.9997 13.7566 11.9997 13.4737Z" fill="#E0E4DF"/>
</svg>
