<svg width="24" height="24" viewBox="0 0 24 24" fill="none" xmlns="http://www.w3.org/2000/svg">
<path fill-rule="evenodd" clip-rule="evenodd" d="M9.62642 0.239044C12.3198 -0.304336 14.9852 0.1013 17.2749 1.22587C17.4294 1.30172 17.4931 1.48848 17.4173 1.64301C17.3415 1.79754 17.1548 1.86132 17.0004 1.78546C14.8296 0.719312 12.3037 0.334834 9.74957 0.850122L9.74956 0.850124C6.84832 1.43536 4.4303 3.07658 2.81327 5.29366C2.71185 5.43271 2.51698 5.46318 2.37801 5.3617C2.23904 5.26023 2.20859 5.06524 2.31001 4.92619C4.01526 2.58816 6.5666 0.856272 9.62642 0.239044ZM9.91488 1.6704C11.098 1.43167 12.2752 1.40143 13.4085 1.55462C13.579 1.57767 13.6986 1.73464 13.6755 1.90523C13.6525 2.07582 13.4956 2.19543 13.3251 2.17239C12.2596 2.02836 11.1522 2.05666 10.038 2.28148L10.038 2.28148C4.7583 3.34658 1.31119 8.42588 2.23108 13.703L2.28355 13.9633C2.49799 15.0269 2.16468 16.0732 1.48082 16.8114C1.36387 16.9376 1.16677 16.9451 1.04059 16.8281C0.914416 16.7111 0.906939 16.5139 1.02389 16.3876C1.54872 15.8211 1.81696 15.0329 1.69646 14.2215L1.66942 14.0874C0.519286 8.38016 4.21083 2.8211 9.91488 1.6704ZM14.8134 2.16279C14.8659 1.99887 15.0413 1.90859 15.2052 1.96114C18.6414 3.06345 21.4125 5.90448 22.2674 9.65475L22.2737 9.65437L22.3273 9.92021C22.8469 12.4981 22.9261 15.0629 22.6183 17.5372C22.597 17.708 22.4414 17.8292 22.2707 17.8079C22.0999 17.7867 21.9788 17.631 22 17.4601C22.2891 15.1367 22.2276 12.7307 21.7686 10.3094L21.7673 10.3095L21.7137 10.0436C20.9779 6.39235 18.3256 3.61677 15.0149 2.55475C14.8511 2.5022 14.7609 2.32671 14.8134 2.16279ZM18.4547 2.25718C18.5535 2.11627 18.7478 2.0822 18.8886 2.18108C21.3009 3.87484 23.0977 6.45669 23.7419 9.56872C23.7503 9.58819 23.7568 9.60882 23.7611 9.63043C23.9381 10.5087 24.0143 11.3843 23.9978 12.245C23.9945 12.4171 23.8524 12.5539 23.6804 12.5506C23.5084 12.5473 23.3716 12.4051 23.3749 12.233C23.3901 11.4375 23.3218 10.628 23.1626 9.81523C23.1546 9.79621 23.1483 9.77612 23.1441 9.7551C22.5441 6.77764 20.8338 4.3084 18.5307 2.69136C18.3899 2.59248 18.3558 2.39809 18.4547 2.25718ZM20.8427 9.97101C19.7479 5.18993 15.0373 2.12629 10.2032 3.10148L10.2032 3.10148C6.42646 3.8635 3.67446 6.86863 3.0524 10.4501C3.02294 10.6197 3.13647 10.7811 3.30597 10.8105C3.47547 10.84 3.63676 10.7264 3.66622 10.5568C4.24576 7.22016 6.80976 4.42209 10.3263 3.71256C14.9028 2.78934 19.3604 5.75269 20.2832 10.332L20.331 10.5696L20.3314 10.5696C20.3873 10.8638 20.437 11.1578 20.4805 11.4514C20.5058 11.6217 20.6642 11.7392 20.8344 11.714C21.0046 11.6887 21.122 11.5302 21.0968 11.3599C21.0399 10.9767 20.9729 10.5929 20.8957 10.2089L20.8478 9.97127L20.8427 9.97101ZM10.2648 3.40702L10.3263 3.71256L10.2648 3.40702ZM16.4318 6.59218C14.8642 5.3076 12.7553 4.71208 10.6147 5.14389L10.6147 5.14389C10.0726 5.25321 9.55829 5.42245 9.07701 5.64316C8.92061 5.71489 8.73571 5.64617 8.66403 5.48969C8.59235 5.3332 8.66103 5.1482 8.81742 5.07647C9.34199 4.83591 9.90211 4.65169 10.4916 4.53281M10.4916 4.5328C12.8231 4.0625 15.1205 4.71192 16.8265 6.10991C16.9596 6.21898 16.9792 6.41536 16.8701 6.54853C16.7611 6.68171 16.5649 6.70125 16.4318 6.59218M10.7802 5.96395C14.1138 5.29138 17.3608 7.45007 18.0331 10.7857L18.0734 10.9858L18.0716 10.9871C18.5089 13.2799 18.5208 15.5577 18.1618 17.738C18.1338 17.9079 17.9736 18.0229 17.8038 17.9949C17.634 17.9669 17.5191 17.8065 17.5471 17.6367C17.9044 15.466 17.882 13.195 17.4215 10.9095L17.4007 10.8063C16.7512 7.86662 13.8653 5.97744 10.9033 6.57503C7.9989 7.16105 6.08778 9.92266 6.52337 12.8221L6.57871 13.0967C6.73664 13.8805 6.76839 14.6609 6.6876 15.4166C6.66931 15.5878 6.51579 15.7117 6.34473 15.6934C6.17366 15.6751 6.04982 15.5215 6.06812 15.3503C6.13166 14.756 6.11938 14.1445 6.02305 13.5279L6.02296 13.5279L5.96117 13.2214C5.2889 9.88559 7.44644 6.6366 10.7802 5.96395L10.8412 6.26655L10.7802 5.96395ZM7.63728 6.1283C7.74574 6.26193 7.72539 6.45822 7.59184 6.56674C5.70606 8.09899 4.68273 10.566 5.0908 13.1085L5.14673 13.3859C5.61816 15.7242 4.69836 18.0183 2.96094 19.4149C2.82681 19.5227 2.63074 19.5013 2.52299 19.3671C2.41524 19.2329 2.43662 19.0367 2.57075 18.9289C4.07241 17.7219 4.89323 15.7715 4.58036 13.7577L4.53051 13.5104C3.95088 10.6345 5.07179 7.81132 7.19909 6.08283C7.33264 5.97431 7.52883 5.99467 7.63728 6.1283ZM1.73609 6.40494C1.88923 6.4834 1.94979 6.67121 1.87137 6.82443C0.748847 9.0177 0.32744 11.5887 0.837496 14.1918C0.845498 14.2107 0.851733 14.2307 0.855961 14.2517C0.888982 14.4153 0.925214 14.5772 0.964734 14.7375C1.00594 14.9046 0.903934 15.0735 0.736899 15.1148C0.569863 15.156 0.401051 15.0539 0.359847 14.8868C0.32325 14.7384 0.289369 14.5888 0.258138 14.438C0.249796 14.4185 0.243319 14.398 0.238972 14.3764C-0.318716 11.6092 0.123555 8.8718 1.31684 6.54029C1.39526 6.38707 1.58296 6.32647 1.73609 6.40494ZM11.0685 7.39547C11.5052 7.30733 11.9406 7.28295 12.3644 7.316C12.5359 7.32938 12.6641 7.47934 12.6508 7.65096C12.6374 7.82258 12.4875 7.95087 12.316 7.93749C11.9489 7.90886 11.5714 7.92991 11.1917 8.00654L11.1917 8.00654C9.0718 8.43426 7.67054 10.436 7.95857 12.5505L8.01052 12.8083C8.6813 16.1372 7.44101 19.4071 5.04704 21.4816C4.91699 21.5943 4.72026 21.5802 4.60763 21.45C4.495 21.3199 4.50912 21.1231 4.63917 21.0104C6.79901 19.1388 7.94947 16.2249 7.45429 13.2288L7.4513 13.2293L7.39159 12.9329C6.87866 10.3876 8.52487 7.90868 11.0685 7.39547ZM17.7218 7.44985C17.8608 7.34849 18.0557 7.3791 18.157 7.51823C18.7629 8.3503 19.2087 9.3186 19.4403 10.3861L19.4417 10.3873L19.464 10.4977C20.2701 14.4978 19.8684 18.4615 18.5115 22.011C18.45 22.1717 18.2699 22.2522 18.1092 22.1907C17.9485 22.1292 17.8681 21.949 17.9296 21.7883C19.2332 18.3783 19.6279 14.5745 18.8751 10.7311L18.8751 10.7311L18.8528 10.6206C18.6468 9.5989 18.2285 8.67506 17.6535 7.88531C17.5522 7.74618 17.5827 7.55122 17.7218 7.44985ZM13.8591 8.01694C13.9429 7.86659 14.1326 7.81266 14.2829 7.89649C15.4402 8.54212 16.3199 9.67214 16.6026 11.0746L16.6531 11.3254L16.6493 11.327C17.4706 15.7202 16.6038 20.0489 14.5017 23.6345C14.4147 23.783 14.2238 23.8327 14.0754 23.7456C13.927 23.6585 13.8773 23.4676 13.9643 23.3191C16.0321 19.7921 16.861 15.5219 15.9897 11.1987L15.9628 11.065C15.6904 9.91016 14.9477 8.98108 13.9795 8.44096C13.8292 8.35713 13.7753 8.16729 13.8591 8.01694ZM11.3569 8.82662C13.1105 8.47275 14.8185 9.60843 15.172 11.363L15.2243 11.6225L15.2191 11.6245C15.4022 12.6142 15.4923 13.6006 15.495 14.5743C15.4955 14.7464 15.3564 14.8864 15.1844 14.8868C15.0123 14.8873 14.8725 14.7482 14.872 14.576C14.8692 13.5576 14.7669 12.5243 14.558 11.4874L14.5313 11.3547C14.1894 10.0129 12.852 9.16084 11.48 9.43769L11.48 9.4377C10.4226 9.65104 9.64295 10.4748 9.43551 11.4696C9.40038 11.6381 9.23536 11.7462 9.06695 11.7111C8.89853 11.6759 8.79049 11.5108 8.82563 11.3423C9.08218 10.112 10.0465 9.09098 11.3569 8.82662ZM11.6453 10.2579C12.6089 10.0635 13.5474 10.6875 13.7417 11.6516L13.7965 11.9233L13.7895 11.9256C14.5852 16.2817 13.3991 20.5573 10.8618 23.8059C10.7559 23.9415 10.5601 23.9656 10.4246 23.8596C10.289 23.7536 10.265 23.5577 10.3709 23.4221C12.8539 20.2429 13.9858 16.0403 13.1264 11.7763L13.1055 11.6723C12.9367 11.1047 12.3599 10.7497 11.7685 10.869C11.1945 10.9849 10.8061 11.5075 10.8427 12.0766L10.8737 12.2306C11.2094 13.8966 11.183 15.5524 10.8482 17.1158C10.8121 17.2841 10.6465 17.3913 10.4783 17.3552C10.3101 17.3192 10.2029 17.1535 10.239 16.9851C10.5364 15.5965 10.5772 14.1304 10.3187 12.6503L10.3122 12.6514L10.2526 12.3555C10.0584 11.3914 10.6819 10.4524 11.6453 10.2579L11.7069 10.5635L11.6453 10.2579ZM11.9384 11.6978C12.107 11.6638 12.2713 11.773 12.3053 11.9417C13.1697 16.2306 11.8935 20.4539 9.21476 23.5046C9.1012 23.6339 8.90438 23.6466 8.77513 23.533C8.64589 23.4194 8.63317 23.2225 8.74672 23.0931C11.3027 20.1823 12.5189 16.1549 11.6946 12.0649C11.6606 11.8962 11.7697 11.7318 11.9384 11.6978ZM3.22536 12.0395C3.39726 12.0325 3.54232 12.1662 3.54936 12.3382C3.56374 12.6894 3.60009 13.0435 3.65968 13.3988L3.71522 13.6744C4.06616 15.4158 3.40655 17.1255 2.14255 18.1972C2.01129 18.3085 1.81473 18.2922 1.7035 18.1609C1.59228 18.0296 1.60851 17.8329 1.73977 17.7216C2.79113 16.8302 3.3593 15.4324 3.13855 13.9898L3.10004 13.7988C3.00317 13.3182 2.9463 12.8386 2.92686 12.3637C2.91982 12.1917 3.05347 12.0466 3.22536 12.0395ZM9.20574 12.9305C9.37622 12.9074 9.53316 13.027 9.55626 13.1975C10.0283 16.6823 8.72673 20.0474 6.30296 22.3163C6.17733 22.4339 5.98021 22.4273 5.86267 22.3016C5.74513 22.1759 5.75169 21.9787 5.87732 21.8611C8.15923 19.725 9.38279 16.5586 8.93889 13.2813C8.91578 13.1107 9.03526 12.9536 9.20574 12.9305ZM20.9632 12.9358C21.1349 12.925 21.2829 13.0554 21.2937 13.2272C21.4472 15.6609 21.1958 18.0501 20.5913 20.3188C20.547 20.4851 20.3763 20.584 20.2101 20.5396C20.0438 20.4953 19.945 20.3245 19.9893 20.1582C20.5768 17.9533 20.8211 15.6317 20.6719 13.2665C20.6611 13.0947 20.7915 12.9466 20.9632 12.9358ZM15.1161 16.1189C15.287 16.1384 15.4098 16.2929 15.3903 16.4639C15.0842 19.1502 14.1173 21.6856 12.6273 23.8643C12.5301 24.0064 12.3362 24.0427 12.1943 23.9455C12.0523 23.8483 12.0159 23.6543 12.1131 23.5123C13.547 21.4156 14.4769 18.9765 14.7713 16.3933C14.7908 16.2222 14.9452 16.0994 15.1161 16.1189ZM6.03781 16.9543C6.19818 17.0166 6.2777 17.1972 6.21541 17.3576C5.73958 18.5835 4.95245 19.6727 3.9313 20.5097C3.79821 20.6187 3.60194 20.5992 3.49292 20.466C3.3839 20.3329 3.40341 20.1365 3.5365 20.0274C4.47431 19.2588 5.19754 18.2581 5.63466 17.132C5.69694 16.9715 5.87744 16.8919 6.03781 16.9543ZM10.1175 18.557C10.2778 18.6196 10.357 18.8003 10.2945 18.9607C9.70691 20.4672 8.82069 21.8422 7.69342 22.9986C7.5733 23.1219 7.37607 23.1243 7.25291 23.0041C7.12975 22.8839 7.12729 22.6866 7.24741 22.5634C8.31642 21.4667 9.15691 20.1626 9.71406 18.7341C9.7766 18.5737 9.95722 18.4944 10.1175 18.557ZM17.5424 19.2063C17.7086 19.2508 17.8073 19.4217 17.7628 19.588C17.4419 20.7869 17.0072 21.9469 16.4687 23.0528C16.3934 23.2076 16.2069 23.2719 16.0522 23.1965C15.8976 23.1212 15.8333 22.9346 15.9086 22.7798C16.4298 21.7094 16.8505 20.5868 17.161 19.4267C17.2055 19.2604 17.3763 19.1617 17.5424 19.2063Z" fill="#E0E4DF"/>
</svg>
